<svg width="101" height="40" viewBox="0 0 101 40" fill="none" xmlns="http://www.w3.org/2000/svg">
<g clip-path="url(#clip0)">
<path d="M6.55381 35.1458C6.12838 35.1764 5.9482 35.3159 5.91839 35.5998C5.88132 35.8287 5.85902 36.1276 5.85902 36.7254V37.4845C5.85902 38.3354 5.73173 38.9876 5.30527 39.4457C4.96176 39.8079 4.46038 39.9912 3.93747 39.9912C3.46693 39.9912 3.0104 39.8841 2.66612 39.6096C2.23239 39.2627 2.03122 38.6955 2.03122 37.7987V35.9508C2.03122 35.2462 1.96381 35.2003 1.39554 35.1458V34.9016H3.5263V35.1458C2.96503 35.1917 2.8984 35.2462 2.8984 35.9508V37.646C2.8984 38.8261 3.32435 39.5092 4.18402 39.5092C5.14116 39.5092 5.50722 38.7346 5.50722 37.4542V36.7254C5.50722 36.1276 5.47767 35.8199 5.44033 35.591C5.40248 35.3159 5.2306 35.1852 4.71496 35.1458V34.9016H6.55381V35.1458Z" fill="#00447C"/>
<path d="M18.0051 35.1458C17.6017 35.1699 17.4376 35.2682 17.3997 35.6148C17.3697 35.8528 17.3401 36.2041 17.3401 36.8955V39.9606H17.0264L13.8867 36.0664H13.8716V37.8599C13.8716 38.5493 13.9017 38.8961 13.924 39.125C13.9613 39.4851 14.1104 39.6096 14.6416 39.6378V39.8841H12.8401V39.6378C13.2582 39.6096 13.4376 39.494 13.4675 39.1468C13.4981 38.8961 13.5351 38.5493 13.5351 37.8599V36.2344C13.5351 35.7066 13.5198 35.606 13.3855 35.4295C13.2359 35.2374 13.0718 35.1764 12.7429 35.1458V34.9016H14.0215L16.9738 38.4422H16.9964V36.8955C16.9964 36.2129 16.959 35.8528 16.9442 35.6301C16.9067 35.2921 16.7418 35.1764 16.2036 35.1458V34.9016H18.0051V35.1458Z" fill="#00447C"/>
<path d="M24.4108 39.8844V39.6378C24.9861 39.5857 25.0535 39.5398 25.0535 38.8873V35.8963C25.0535 35.2464 24.9861 35.2005 24.4108 35.1461V34.9016H26.5572V35.1461C25.9806 35.2005 25.9212 35.2464 25.9212 35.8963V38.8873C25.9212 39.5398 25.9806 39.5857 26.5572 39.6378V39.8844H24.4108Z" fill="#00447C"/>
<path d="M38.0383 35.1546C37.5454 35.207 37.4259 35.292 37.1265 36.012C36.9017 36.5727 36.1774 38.3901 35.6008 39.9694H35.2796C34.7712 38.5645 34.1065 36.7866 33.7472 35.8746C33.5229 35.292 33.4029 35.2005 32.9474 35.1546V34.9016H35.0336V35.1546C34.4948 35.2223 34.4876 35.3009 34.5991 35.6368C34.8088 36.2282 35.3773 37.7528 35.7356 38.689H35.7579C36.1551 37.631 36.5657 36.5268 36.7822 35.8199C36.939 35.3226 36.924 35.2309 36.3109 35.1546V34.9016H38.0383V35.1546Z" fill="#00447C"/>
<path d="M48.3011 38.6343C48.2558 38.9485 48.1064 39.6531 48.0393 39.8844H44.3017V39.6378C44.9524 39.5855 45.0193 39.531 45.0193 38.8873V35.9049C45.0193 35.2309 44.9524 35.1917 44.3987 35.1458V34.9016H47.8526C47.8599 35.0543 47.8972 35.5821 47.927 36.0361L47.6724 36.0732C47.6058 35.7831 47.5161 35.5604 47.3971 35.4141C47.2766 35.2614 47.0751 35.2067 46.6113 35.2067H46.1709C45.909 35.2067 45.886 35.222 45.886 35.4686V37.1462H46.462C47.1202 37.1462 47.1947 37.1008 47.2924 36.5639H47.5387V38.0823H47.2924C47.1947 37.5392 47.1125 37.4998 46.4698 37.4998H45.886V38.8634C45.886 39.2321 45.9241 39.4177 46.0654 39.4939C46.208 39.5702 46.4698 39.5769 46.7837 39.5769C47.2398 39.5769 47.478 39.5243 47.6509 39.3236C47.7922 39.1644 47.927 38.9091 48.0546 38.5884L48.3011 38.6343Z" fill="#00447C"/>
<path d="M59.1989 39.952C59.1401 39.952 59.0584 39.9453 58.9677 39.9453C58.1606 39.9062 57.8682 39.7076 57.5475 39.2168C57.3315 38.8785 57.1065 38.4422 56.8895 38.0517C56.7622 37.8293 56.6355 37.7311 56.3365 37.7311H56.1644V38.8873C56.1644 39.5243 56.2321 39.5852 56.8079 39.6376V39.8844H54.6613V39.6376C55.2371 39.5852 55.3125 39.5243 55.3125 38.8873V35.8896C55.3125 35.2615 55.2459 35.2003 54.6919 35.1458V34.9014H56.6966C57.3163 34.9014 57.6893 34.969 57.9804 35.1764C58.2804 35.3836 58.4824 35.7216 58.4824 36.1973C58.4824 36.8628 58.0634 37.2465 57.5387 37.4692C57.6587 37.7072 57.9509 38.2133 58.1759 38.5643C58.4378 38.9788 58.5936 39.2101 58.7585 39.3848C58.9306 39.5766 59.0724 39.6702 59.2448 39.7229L59.1989 39.952ZM56.4174 37.4474C56.7555 37.4474 57.002 37.3927 57.1809 37.24C57.4428 37.0176 57.5561 36.7101 57.5561 36.3106C57.5561 35.4839 57.0697 35.185 56.5984 35.185C56.3957 35.185 56.2842 35.2156 56.2321 35.2615C56.1797 35.3071 56.1644 35.3921 56.1644 35.5689V37.4474H56.4174Z" fill="#00447C"/>
<path d="M68.1699 36.1126C68.0258 35.6304 67.7725 35.0764 67.1519 35.0764C66.6743 35.0764 66.3829 35.4297 66.3829 35.8593C66.3829 36.3353 66.6883 36.588 67.3245 36.9175C68.0346 37.2776 68.6322 37.6834 68.6322 38.4816C68.6322 39.3327 67.9299 40 66.8695 40C66.5859 40 66.3306 39.952 66.1278 39.8932C65.9272 39.8235 65.7919 39.7688 65.7024 39.7229C65.6347 39.5398 65.5375 38.8964 65.4852 38.4665L65.7395 38.3901C65.8748 38.8723 66.2785 39.699 67.0111 39.699C67.512 39.699 67.8187 39.3633 67.8187 38.8505C67.8187 38.3571 67.4586 38.0759 66.8981 37.7684C66.2326 37.4236 65.6195 37.0179 65.6195 36.2347C65.6195 35.4297 66.2401 34.786 67.2732 34.786C67.6984 34.786 68.087 34.9081 68.2747 34.9784C68.3053 35.255 68.3486 35.5757 68.4162 36.0602L68.1699 36.1126Z" fill="#00447C"/>
<path d="M75.0538 39.8844V39.6378C75.6285 39.5857 75.6962 39.5398 75.6962 38.8873V35.8963C75.6962 35.2464 75.6285 35.2005 75.0538 35.1461V34.9016H77.1993V35.1461C76.6235 35.2005 76.5634 35.2464 76.5634 35.8963V38.8873C76.5634 39.5398 76.6235 39.5857 77.1993 39.6378V39.8844H75.0538Z" fill="#00447C"/>
<path d="M87.7606 36.167C87.6709 35.7831 87.5814 35.5453 87.4617 35.4141C87.3352 35.2617 87.1705 35.207 86.685 35.207H86.2813V38.8964C86.2813 39.5245 86.349 39.5855 87.0274 39.6378V39.8844H84.6952V39.6378C85.3454 39.5855 85.4131 39.531 85.4131 38.8964V35.207H85.0849C84.4642 35.207 84.3224 35.2856 84.2177 35.4294C84.1049 35.5604 84.0233 35.8069 83.9341 36.1735H83.6785C83.7093 35.6457 83.7529 35.1088 83.7682 34.7098H83.9406C84.0528 34.8863 84.15 34.9016 84.3592 34.9016H87.3502C87.5446 34.9016 87.6338 34.856 87.7606 34.7098H87.9327C87.9327 35.039 87.9698 35.676 88.0082 36.1517L87.7606 36.167Z" fill="#00447C"/>
<path d="M99.1084 35.1458C98.6218 35.2003 98.4942 35.3226 98.2106 35.7742C97.9117 36.265 97.6958 36.6425 97.3292 37.3471C97.2247 37.5459 97.2016 37.6375 97.2016 37.8532V38.8632C97.2016 39.5396 97.2615 39.5855 97.9348 39.6378V39.8841H95.6254V39.6378C96.2668 39.5919 96.3344 39.5396 96.3344 38.8632V37.9517C96.3344 37.7681 96.3041 37.6981 96.2147 37.5151C95.9909 37.0788 95.7213 36.5727 95.2871 35.7984C95.0037 35.2856 94.8925 35.2003 94.4647 35.1458V34.9016H96.4763V35.1458C95.9679 35.2156 95.9834 35.3073 96.1172 35.5754C96.3933 36.1429 96.7228 36.7342 97.0292 37.3012C97.2615 36.841 97.6501 36.1037 97.8441 35.6368C97.9783 35.3009 97.9641 35.2156 97.4033 35.1458V34.9016H99.1084V35.1458Z" fill="#00447C"/>
<path d="M11.7823 24.9229C10.8882 25.1015 10.7811 25.1738 10.7811 26.3715V27.8026C10.7811 28.4442 10.7993 29.0154 10.8882 29.4825C9.81567 29.7311 8.2607 30.126 6.81202 30.126C2.6643 30.126 0 27.7655 0 24.17C0 19.4035 3.30853 17.5208 7.0806 17.5208C8.54691 17.5208 10.1664 17.9133 10.8101 18.0551L10.8296 22.1041L10.1742 22.1087C9.74412 20.1037 8.40328 18.7185 6.72283 18.7185C4.57755 18.7185 2.7177 20.6492 2.7177 23.8669C2.7177 26.5675 4.04117 29.3908 6.97431 29.3908C7.33025 29.3908 7.74116 29.3384 7.97397 29.1769C8.24229 29.0154 8.38591 28.7297 8.38591 28.1777V26.4784C8.38591 25.2259 8.29621 25.082 6.41951 24.9229V24.2968H11.7823V24.9229Z" fill="#00447C"/>
<path d="M18.5417 29.8574V29.2313C19.5969 29.0698 19.6871 28.8559 19.4011 28.0688C19.2212 27.5319 18.9539 26.764 18.6846 26.0485H15.2529C15.0566 26.6025 14.8231 27.246 14.6089 27.9618C14.3409 28.8191 14.3943 29.0698 15.7006 29.2313V29.8574H11.6939V29.2313C12.8748 29.0874 13.1076 28.8933 13.6971 27.3901L17.3624 18.2011L18.2744 17.9677C19.4188 21.0961 20.5257 24.2073 21.689 27.2831C22.2975 28.8559 22.5124 29.0874 23.6554 29.2313V29.8574H18.5417ZM17.0225 21.2205H16.9681C16.4693 22.5274 16.0216 23.8319 15.5554 25.1015H18.346L17.0225 21.2205Z" fill="#00447C"/>
<path d="M33.7409 26.8338C33.5978 27.604 33.2224 29.3734 33.0788 29.8574H24.3722V29.2313C25.9274 29.1071 26.1058 28.998 26.1058 27.4796V20.6315C26.1058 19.0934 25.9274 18.9868 24.5687 18.8621V18.2361H30.0223V18.8621C28.663 18.9868 28.5018 19.0934 28.5018 20.6315V27.6214C28.5018 28.4634 28.5741 28.7667 28.9306 28.9283C29.2531 29.0527 29.7182 29.0874 30.2712 29.0874C31.0401 29.0874 31.6846 28.963 32.1129 28.481C32.4354 28.1233 32.7745 27.5493 33.0964 26.6396L33.7409 26.8338Z" fill="#00447C"/>
<path d="M43.146 26.8338C43.0039 27.604 42.6275 29.3734 42.4844 29.8574H33.7783V29.2313C35.333 29.1071 35.5116 28.998 35.5116 27.4796V20.6315C35.5116 19.0934 35.333 18.9868 33.9745 18.8621V18.2361H39.4281V18.8621C38.0686 18.9868 37.9071 19.0934 37.9071 20.6315V27.6214C37.9071 28.4634 37.9794 28.7667 38.3372 28.9283C38.6594 29.0527 39.1243 29.0874 39.6772 29.0874C40.4459 29.0874 41.0912 28.963 41.5192 28.481C41.8407 28.1233 42.18 27.5493 42.502 26.6396L43.146 26.8338Z" fill="#00447C"/>
<path d="M49.8434 29.8574V29.2313C50.8983 29.0698 50.9885 28.8559 50.702 28.0688C50.5221 27.5319 50.2533 26.764 49.9865 26.0485H46.5535C46.3568 26.6025 46.125 27.246 45.909 27.9618C45.6425 28.8191 45.6949 29.0698 47.001 29.2313V29.8574H42.9966V29.2313C44.1757 29.0874 44.408 28.8933 44.998 27.3901L48.6633 18.2011L49.5746 17.9677C50.7189 21.0961 51.8272 24.2073 52.9899 27.2831C53.5986 28.8559 53.8138 29.0874 54.9576 29.2313V29.8574H49.8434ZM48.3239 21.2205H48.269C47.7692 22.5274 47.3222 23.8319 46.8579 25.1015H49.6461L48.3239 21.2205Z" fill="#00447C"/>
<path d="M66.6054 18.8624C65.6399 18.9148 65.1938 19.2902 65.1043 19.9163C65.0149 20.4703 64.9431 21.1334 64.9431 22.4009V24.3515C64.9431 26.245 64.6571 27.7482 63.6569 28.8194C62.8354 29.6788 61.6182 30.1263 60.3484 30.1263C59.1691 30.1263 58.0447 29.8753 57.185 29.2142C56.1838 28.4093 55.7006 27.0871 55.7006 24.995V20.7757C55.7006 19.0939 55.5227 18.9869 54.1988 18.8624V18.2363H59.5805V18.8624C58.2757 18.9869 58.096 19.0939 58.096 20.7757V24.6722C58.096 27.3557 59.0612 28.9086 60.9919 28.9086C63.119 28.9086 64.0507 27.2989 64.0507 24.3165V22.4009C64.0507 21.1334 63.9613 20.4529 63.8698 19.9163C63.7648 19.2902 63.3526 18.9345 62.1364 18.8624V18.2363H66.6054V18.8624Z" fill="#00447C"/>
<path d="M72.9538 18.2363C75.2062 18.2363 76.9419 18.6812 78.0862 19.7742C78.9796 20.6142 79.6788 21.884 79.6788 23.5813C79.6788 25.7649 78.8004 27.3357 77.4425 28.3719C76.1193 29.3734 74.241 29.8577 72.0265 29.8577H67.4298V29.2313C68.8424 29.1074 69.0213 28.9983 69.0213 27.4622V20.6318C69.0213 19.0937 68.8424 18.9866 67.5913 18.8622V18.2363H72.9538ZM71.4181 27.3554C71.4181 28.6426 71.6861 29.0877 72.9362 29.0877C75.3319 29.0877 76.9789 27.1395 76.9789 23.939C76.9789 22.2417 76.4597 20.8825 75.6373 20.0775C74.9042 19.327 73.9571 18.9692 72.7226 18.9692C72.0781 18.9692 71.7214 19.0937 71.5969 19.2179C71.4528 19.3791 71.4181 19.6845 71.4181 20.2017V27.3554Z" fill="#00447C"/>
<path d="M89.9948 26.8906C89.8703 27.6935 89.5128 29.3208 89.3695 29.8574H80.2517V29.2313C81.7722 29.1071 81.9513 28.998 81.9513 27.4796V20.6141C81.9513 19.0584 81.7722 18.969 80.5024 18.8624V18.2361H88.9212C88.9407 18.5568 89.0293 19.8092 89.1004 20.9172L88.4393 21.0069C88.2788 20.3806 88.0465 19.7916 87.7258 19.4688C87.4204 19.1481 86.9372 19.0234 85.9391 19.0234H85.0794C84.4173 19.0234 84.3465 19.0584 84.3465 19.65V23.4392H85.5443C87.0463 23.4392 87.296 23.3474 87.5275 22.0976H88.171V25.6905H87.5275C87.296 24.4033 87.0637 24.3313 85.5443 24.3313H84.3465V27.4446C84.3465 28.2998 84.4173 28.7297 84.7753 28.9085C85.0971 29.0527 85.7045 29.0874 86.385 29.0874C87.3134 29.0874 87.9384 28.963 88.3499 28.5158C88.7076 28.123 89.0293 27.5493 89.3511 26.764L89.9948 26.8906Z" fill="#00447C"/>
<path d="M100.008 21.2926C99.7946 20.363 99.5437 19.7548 99.223 19.4341C98.9 19.1134 98.4538 19.0239 97.3989 19.0239H96.5929V27.4798C96.5929 28.9983 96.7731 29.1071 98.346 29.2316V29.8577H92.5168V29.2316C94.0199 29.1071 94.1964 28.9983 94.1964 27.4798V19.0239H93.59C92.1064 19.0239 91.7846 19.2026 91.5326 19.5059C91.2306 19.8092 91.016 20.4179 90.7824 21.3102H90.1213C90.1944 20.0055 90.3023 18.7009 90.3352 17.7889H90.7824C91.0504 18.1819 91.284 18.2363 91.8033 18.2363H98.9917C99.4553 18.2363 99.7029 18.1269 100.008 17.7889H100.454C100.473 18.5394 100.563 20.1146 100.652 21.2576L100.008 21.2926Z" fill="#00447C"/>
<path d="M94.5324 13.862C94.5303 13.86 94.528 13.8574 94.5239 13.8532C86.2945 7.37174 64.4979 9.53674e-07 46.8058 9.53674e-07C27.8386 9.53674e-07 11.4596 5.01776 3.77881 12.2824C14.6737 6.83068 29.924 3.44049 46.8058 3.44049C55.3112 3.44049 63.4005 4.30223 70.7287 5.85332C67.2742 5.42348 63.6385 5.19431 59.8838 5.19431C43.5981 5.19431 29.5349 9.50302 22.9404 15.7405C32.2946 11.0588 45.3892 8.14818 59.8838 8.14818C74.3766 8.14818 87.4707 11.0588 96.8252 15.7405C96.1403 15.0927 95.3724 14.4661 94.5324 13.862Z" fill="#E8D3A2"/>
</g>
<defs>
<clipPath id="clip0">
<rect width="100.652" height="40" fill="white"/>
</clipPath>
</defs>
</svg>
