<svg width="96" height="66" viewBox="0 0 96 66" fill="none" xmlns="http://www.w3.org/2000/svg">
<path fill-rule="evenodd" clip-rule="evenodd" d="M32.5567 16.3968L33.1223 17.5118C39.4069 14.4557 43.4001 13.4317 43.4001 13.4317L43.4015 13.3092L41.1023 13.3758C39.8443 12.5301 39.6225 10.7249 39.6225 10.7249C48.3697 16.5871 60.1739 10.831 62.6416 8.79936L62.641 8.69286L60.1764 8.63909C59.0096 7.84529 58.8056 6.08189 58.8264 6.08231C61.0473 7.22627 62.8687 7.75434 63.457 7.90831C65.4549 6.11214 66.5074 3.48962 66.1128 0L66.3612 0.0722572C66.8169 1.42773 66.8706 3.00587 66.5854 4.54031L67.8986 4.89824L65.1316 8.27843L70.676 9.61752C70.676 9.61752 70.3235 10.418 69.4963 11.1314L69.4937 11.1314L69.491 11.1312L69.4963 11.1331C69.4963 11.1331 69.4904 11.1318 69.4816 11.1307C69.1566 11.1087 68.8456 11.0971 68.5473 11.0936L68.5235 11.0944C67.4776 11.1302 65.8826 11.1849 63.9292 12.6169L61.6991 12.7692L61.2494 13.0574L63.3413 13.188L62.8725 13.6545L60.6797 13.8039L60.2302 14.0925L62.3015 14.2217L61.1078 15.4076C64.0889 15.6471 65.7912 16.4142 65.7912 16.4142C63.4024 19.4514 58.0582 22.0878 58.0582 22.0878L57.8066 21.9334C57.8066 21.9334 60.6322 19.5562 61.4796 18.3366C59.5263 18.7433 56.6645 20.5458 56.6645 20.5458L56.662 20.5447C55.834 19.6157 52.9063 17.1479 48.0366 16.6522C48.0423 16.7043 48.1918 17.2215 48.2382 17.3298C42.8688 16.7205 37.1304 18.3879 34.8954 19.1638C34.7169 19.2262 34.0705 19.4856 33.9493 19.5405L33.4273 18.6238C33.4273 18.6238 29.0639 19.6631 25.7978 21.2663L25.6079 21.0831C28.2182 18.6515 32.5567 16.3968 32.5567 16.3968ZM94.2998 60.2581C94.1769 59.5001 93.7946 59.1212 93.1527 59.1212C92.5314 59.1212 92.2207 59.3841 92.2207 59.9098C92.2207 60.0669 92.2549 60.2 92.3231 60.3093C92.3914 60.4117 92.4836 60.5004 92.5997 60.5756C92.7226 60.6507 92.8625 60.7155 93.0196 60.7702C93.1835 60.8179 93.3542 60.8623 93.5317 60.9033C93.8048 60.9716 94.0848 61.0467 94.3715 61.1286C94.6651 61.2106 94.9314 61.33 95.1704 61.4871C95.4162 61.6373 95.6142 61.8421 95.7644 62.1016C95.9215 62.3611 96 62.6991 96 63.1156C96 63.5321 95.9249 63.8974 95.7747 64.2115C95.6313 64.5187 95.4333 64.7782 95.1806 64.9898C94.9348 65.1947 94.6412 65.3483 94.2998 65.4507C93.9584 65.5532 93.5931 65.6044 93.2039 65.6044C92.3231 65.6044 91.6335 65.42 91.1351 65.0513C90.6366 64.6758 90.3328 64.0851 90.2235 63.2794L91.9339 63.0439C91.9613 63.2282 92.0022 63.3955 92.0568 63.5457C92.1115 63.6959 92.1866 63.8257 92.2822 63.9349C92.3846 64.0373 92.5109 64.1193 92.6611 64.1807C92.8182 64.2422 93.0162 64.2729 93.2552 64.2729C93.5965 64.2729 93.856 64.2012 94.0335 64.0578C94.2111 63.9076 94.2998 63.6959 94.2998 63.4228C94.2998 63.2521 94.2589 63.1087 94.1769 62.9927C94.1018 62.8766 93.996 62.781 93.8594 62.7059C93.7297 62.624 93.5761 62.5557 93.3985 62.501C93.221 62.4464 93.0332 62.3952 92.8352 62.3474C92.5621 62.2791 92.2856 62.204 92.0056 62.1221C91.7257 62.0333 91.4696 61.9104 91.2375 61.7534C91.0122 61.5895 90.8244 61.3744 90.6742 61.1081C90.5308 60.8418 90.4591 60.497 90.4591 60.0737C90.4591 59.7255 90.5274 59.4148 90.6639 59.1417C90.8005 58.8617 90.9883 58.6262 91.2272 58.435C91.4731 58.237 91.7632 58.0868 92.0978 57.9843C92.4392 57.8751 92.8147 57.8205 93.2244 57.8205C93.9892 57.8205 94.6003 57.9946 95.0577 58.3428C95.5152 58.6842 95.802 59.2168 95.9181 59.9406L94.2998 60.2581ZM3.1238 64.2831C3.48568 64.2831 3.7588 64.1671 3.94316 63.9349C4.13434 63.7028 4.247 63.3614 4.28114 62.9107L5.87889 63.0234C5.79013 63.9247 5.49994 64.5802 5.00832 64.9898C4.52354 65.3995 3.86805 65.6044 3.04187 65.6044C2.07912 65.6044 1.33146 65.2937 0.798874 64.6723C0.266291 64.0442 0 63.0985 0 61.8353C0 61.1525 0.0785218 60.5585 0.235565 60.0532C0.399437 59.5479 0.62476 59.1314 0.911536 58.8037C1.19831 58.476 1.53971 58.2336 1.93573 58.0765C2.33858 57.9126 2.77899 57.8307 3.25695 57.8307C3.69394 57.8307 4.07972 57.8956 4.41429 58.0253C4.74886 58.155 5.02881 58.3394 5.25413 58.5784C5.47945 58.8105 5.65015 59.0973 5.76623 59.4387C5.88231 59.7801 5.94034 60.159 5.94034 60.5756L4.31187 60.6985C4.31187 60.398 4.28456 60.1488 4.22993 59.9508C4.17531 59.7528 4.09679 59.5957 3.99437 59.4797C3.89195 59.3568 3.76905 59.2714 3.62566 59.2236C3.48227 59.169 3.32864 59.1417 3.16477 59.1417C2.96676 59.1417 2.7824 59.1861 2.6117 59.2748C2.441 59.3568 2.29079 59.5001 2.16106 59.705C2.03815 59.9098 1.93915 60.1829 1.86404 60.5243C1.78893 60.8657 1.75138 61.2891 1.75138 61.7943C1.75138 62.245 1.7821 62.6308 1.84355 62.9517C1.91183 63.2658 2.00401 63.5218 2.12009 63.7198C2.23616 63.9179 2.37955 64.0612 2.55025 64.15C2.72095 64.2388 2.91213 64.2831 3.1238 64.2831ZM10.769 57.9639L13.2988 65.4815H11.5986L11.0251 63.7506H8.42362L7.87055 65.4815H6.2216L8.70016 57.9639H10.769ZM9.71411 59.4899H9.69363L8.77185 62.4806H10.6666L9.71411 59.4899ZM15.6684 60.4527L18.2698 65.4815H20.1134V57.9639H18.5771V63.0644L16.0781 57.9639H14.1321V65.4815H15.6684V60.4527ZM25.0207 65.4815H23.3923V62.6956L20.8215 57.9639H22.6651L24.2116 61.1184L25.7991 57.9639H27.53L25.0207 62.6547V65.4815ZM28.3137 64.6006C28.8326 65.2698 29.6315 65.6044 30.7103 65.6044C31.7891 65.6044 32.6017 65.2596 33.1479 64.5699C33.6941 63.8803 33.9673 62.9005 33.9673 61.6305C33.9673 60.4288 33.7112 59.4967 33.1991 58.8344C32.687 58.1653 31.9086 57.8307 30.8639 57.8307C30.3518 57.8307 29.891 57.9195 29.4813 58.097C29.0716 58.2677 28.7234 58.5203 28.4366 58.8549C28.1498 59.1895 27.9279 59.6026 27.7709 60.0942C27.6138 60.579 27.5353 61.132 27.5353 61.7534C27.5353 62.9756 27.7948 63.9247 28.3137 64.6006ZM31.8677 63.6891C31.6287 64.0988 31.26 64.3036 30.7615 64.3036C30.2494 64.3036 29.8739 64.0954 29.6349 63.6789C29.3959 63.2555 29.2764 62.5966 29.2764 61.7022C29.2764 61.2515 29.3106 60.8657 29.3789 60.5448C29.454 60.2239 29.5564 59.961 29.6861 59.7562C29.8227 59.5514 29.9865 59.4011 30.1777 59.3055C30.3689 59.21 30.5806 59.1622 30.8127 59.1622C31.2975 59.1622 31.6526 59.3602 31.8779 59.7562C32.11 60.1522 32.2261 60.7872 32.2261 61.6612C32.2261 62.5966 32.1066 63.2726 31.8677 63.6891ZM39.3339 65.4815L36.7324 60.4527V65.4815H35.1961V57.9639H37.1421L39.6412 63.0644V57.9639H41.1774V65.4815H39.3339ZM48.4156 65.4815L50.8224 57.9639H49.1735L47.4221 63.9656H47.3914L45.5888 57.9639H43.8886L46.3467 65.4815H48.4156ZM55.7668 62.2962H53.2985V64.1295H56.2482V65.4815H51.6393V57.9639H56.0741V59.3055H53.2985V60.9852H55.7668V62.2962ZM59.0367 60.4527L61.6382 65.4815H63.4817V57.9639H61.9454V63.0644L59.4464 57.9639H57.5004V65.4815H59.0367V60.4527ZM66.3612 59.3055H64.3742V57.9639H70.0176V59.3055H68.0306V65.4815H66.3612V59.3055ZM76.7305 57.9639H75.0917V62.2962C75.0917 62.6376 75.0747 62.9346 75.0405 63.1873C75.0064 63.4331 74.9381 63.6379 74.8357 63.8018C74.7401 63.9656 74.6069 64.0886 74.4362 64.1705C74.2655 64.2456 74.0471 64.2831 73.7808 64.2831C73.5145 64.2831 73.2926 64.2422 73.115 64.1602C72.9443 64.0715 72.8078 63.9452 72.7054 63.7813C72.6098 63.6106 72.5415 63.4023 72.5005 63.1565C72.4664 62.9039 72.4493 62.6137 72.4493 62.286V57.9639H70.8208V62.7264C70.8208 63.177 70.8686 63.5799 70.9642 63.9349C71.0666 64.29 71.2305 64.5904 71.4558 64.8362C71.688 65.082 71.9884 65.2732 72.3571 65.4098C72.7327 65.5395 73.1901 65.6044 73.7296 65.6044C74.7537 65.6044 75.5082 65.362 75.993 64.8772C76.4846 64.3856 76.7305 63.6891 76.7305 62.7878V57.9639ZM79.9234 65.4815H78.2744V57.9639H81.091C81.5484 57.9639 81.9342 58.0185 82.2483 58.1277C82.5692 58.2301 82.8287 58.3769 83.0267 58.5681C83.2247 58.7593 83.3681 58.988 83.4569 59.2543C83.5525 59.5138 83.6003 59.8006 83.6003 60.1147C83.6003 60.3127 83.5832 60.5175 83.549 60.7292C83.5149 60.9409 83.4466 61.1457 83.3442 61.3437C83.2486 61.5349 83.1121 61.7124 82.9345 61.8763C82.757 62.0402 82.5214 62.1733 82.2278 62.2757L83.7539 65.4815H81.982L80.6096 62.4806H79.9234V65.4815ZM80.5789 61.2413C80.7837 61.2413 80.9681 61.2276 81.1319 61.2003C81.3026 61.173 81.446 61.1218 81.5621 61.0467C81.6782 60.9716 81.7669 60.8692 81.8284 60.7394C81.8898 60.6029 81.9206 60.4322 81.9206 60.2273C81.9206 59.9201 81.8318 59.6845 81.6543 59.5206C81.4768 59.3499 81.1797 59.2646 80.7632 59.2646H79.9234V61.2413H80.5789ZM86.5749 62.2962H89.0432V60.9852H86.5749V59.3055H89.3505V57.9639H84.9157V65.4815H89.5246V64.1295H86.5749V62.2962ZM48.7174 17.7281C48.6798 17.6214 48.5346 17.1729 48.5184 17.1024C53.0951 17.7848 55.2618 19.7331 56.165 20.5987L54.1638 20.0683C53.6017 19.9051 52.1864 19.5545 51.6106 19.4134C43.5439 17.6298 37.515 18.8019 35.0903 19.4655C34.7687 19.5615 34.0676 19.7896 34.0676 19.7896L34.0449 19.7396C34.3831 19.6152 35.0691 19.3871 35.0691 19.3871C37.4497 18.587 43.5005 17.136 48.7174 17.7281ZM14.6912 50.4127V33.4918C15.9244 31.9452 17.1606 30.4149 18.3995 28.9013C22.9224 27.9424 27.4803 27.206 32.057 26.6917C33.2398 27.7389 34.4236 28.8009 35.6083 29.8778V34.1258C33.3572 34.3217 31.1094 34.5713 28.8673 34.8742V32.786C28.6194 32.5596 28.3716 32.3342 28.1239 32.1095C26.2603 32.3714 24.4007 32.6705 22.5459 33.0066C22.147 33.4801 21.7482 33.9554 21.3495 34.4324V46.8573C21.7479 47.1709 22.1468 47.4864 22.5459 47.8034C24.4007 47.4675 26.2603 47.1682 28.1239 46.9063C28.3716 46.6237 28.6194 46.3416 28.8673 46.0604V42.6266C27.215 42.8499 25.5659 43.1024 23.9203 43.3843V38.4991C27.799 37.8355 31.6984 37.3335 35.6083 36.993V47.2234C34.4236 48.5062 33.2398 49.8044 32.057 51.1172C27.4803 51.631 22.9224 52.3677 18.3995 53.3268C17.1606 52.3387 15.9244 51.3674 14.6912 50.4127ZM37.7173 29.9226V46.843C38.9742 48.0034 40.2322 49.1801 41.4909 50.3738C45.777 50.1789 50.0697 50.1774 54.3563 50.37C55.6264 49.1759 56.8964 47.9994 58.1654 46.8397V41.6362C55.9119 41.4745 53.6559 41.3665 51.3987 41.3119V44.3917C51.0305 44.7368 50.6623 45.0834 50.2938 45.4315C48.7611 45.4063 47.2283 45.4061 45.6955 45.4304C45.2916 45.0475 44.8877 44.6662 44.4837 44.2869V31.9681C44.8877 31.557 45.2916 31.1476 45.6955 30.7397C47.2283 30.7155 48.7611 30.7157 50.2938 30.7407C50.6623 31.1125 51.0305 31.4858 51.3987 31.8605V34.7278C53.6559 34.7822 55.9119 34.8901 58.1654 35.0519V29.919C56.8964 28.577 55.6264 27.2526 54.3563 25.9448C50.0699 25.7524 45.777 25.7536 41.4909 25.9486C40.2322 27.2566 38.9742 28.5812 37.7173 29.9226ZM61.033 47.3329V30.6267C60.6234 30.5891 60.2136 30.5532 59.8036 30.5189V26.5521C62.8933 26.8094 65.9766 27.1679 69.0487 27.6273V31.5944C68.6113 31.5289 68.1738 31.4654 67.7358 31.4041V45.4554C68.137 45.9129 68.5378 46.3719 68.9386 46.8325C70.016 46.993 71.0921 47.1657 72.1667 47.3505C72.5662 47.0182 72.9655 46.6878 73.3646 46.3591V32.3077C72.9408 32.2309 72.5164 32.1561 72.0919 32.0832V28.1163C75.156 28.6425 78.207 29.2697 81.2402 29.998V33.9648C80.8379 33.868 80.4351 33.7733 80.0322 33.68V50.3864C78.7853 51.3493 77.5357 52.3292 76.2833 53.3261C72.4746 52.554 68.6422 51.9394 64.7957 51.4819C63.543 50.0823 62.2885 48.6993 61.033 47.3329ZM79.5801 53.0199L79.5217 53.0785H79.2976V52.8184H79.5253L79.5801 52.8735V53.0199ZM79.5839 52.7111H79.1707V53.4557H79.2976V53.1858H79.4894L79.5965 53.4557H79.72L79.6062 53.1629L79.7038 53.0655V52.8315L79.5839 52.7111ZM79.9282 53.4683L79.7786 53.6213H79.0928L78.943 53.4683V52.6981L79.0928 52.5485H79.7786L79.9282 52.6981V53.4683ZM78.8099 52.6689V53.5013L79.0376 53.7284H79.8337L80.0614 53.5013V52.6689L79.8337 52.4412H79.0376L78.8099 52.6689Z" fill="#450A66"/>
</svg>
