<svg width="24" height="24" viewBox="0 0 24 24" fill="none" xmlns="http://www.w3.org/2000/svg">
<path d="M11.9993 3C11.5393 3 11.0693 3.04 10.5993 3.14C7.83934 3.67 5.63934 5.9 5.11934 8.66C4.63934 11.27 5.59934 13.67 7.33934 15.22C7.76934 15.6 7.99934 16.13 7.99934 16.69V19C7.99934 20.1 8.89934 21 9.99934 21H10.2793C10.6293 21.6 11.2593 22 11.9993 22C12.7393 22 13.3793 21.6 13.7193 21H13.9993C15.0993 21 15.9993 20.1 15.9993 19V16.69C15.9993 16.14 16.2193 15.6 16.6393 15.23C18.0893 13.95 18.9993 12.08 18.9993 10C18.9993 6.13 15.8693 3 11.9993 3ZM12.4993 14H11.4993V11.41L9.66934 9.59L10.3793 8.88L11.9993 10.5L13.6193 8.88L14.3293 9.59L12.4993 11.42V14V14ZM13.4993 19C13.4893 19 13.4793 18.99 13.4693 18.99V19H10.5293V18.99C10.5193 18.99 10.5093 19 10.4993 19C10.2193 19 9.99934 18.78 9.99934 18.5C9.99934 18.22 10.2193 18 10.4993 18C10.5093 18 10.5193 18.01 10.5293 18.01V18H13.4693V18.01C13.4793 18.01 13.4893 18 13.4993 18C13.7793 18 13.9993 18.22 13.9993 18.5C13.9993 18.78 13.7793 19 13.4993 19ZM13.4993 17H10.4993C10.2193 17 9.99934 16.78 9.99934 16.5C9.99934 16.22 10.2193 16 10.4993 16H13.4993C13.7793 16 13.9993 16.22 13.9993 16.5C13.9993 16.78 13.7793 17 13.4993 17Z" fill="#F9C92D"/>
</svg>
